<?xml version="1.0" encoding="utf-8"?>
<!-- Generator: Adobe Illustrator 16.0.0, SVG Export Plug-In . SVG Version: 6.00 Build 0)  -->
<!DOCTYPE svg PUBLIC "-//W3C//DTD SVG 1.1//EN" "http://www.w3.org/Graphics/SVG/1.1/DTD/svg11.dtd">
<svg version="1.1" id="Layer_1" xmlns="http://www.w3.org/2000/svg" xmlns:xlink="http://www.w3.org/1999/xlink" x="0px" y="0px"
	 width="254.7px" height="52.557px" viewBox="0 0 254.7 52.557" enable-background="new 0 0 254.7 52.557" xml:space="preserve">
<path fill="#FFFFFF" d="M59.684,43.541c-1.705-0.835-3.862-0.362-5.729-0.842c5.529-5.622,7.436-12.814,7.556-21.219
	c0.004-0.172,0.006-0.346,0.006-0.519c0-5.443-1.816-10.598-5.113-14.515C52.902,2.289,48.175,0,43.094,0
	c-4.345,0-8.442,1.726-11.676,4.738c-0.056,0.052-0.117,0.097-0.172,0.15C27.988,1.779,23.819,0,19.399,0c0,0,0,0,0,0
	c-2.858,0-5.604,0.724-8.083,2.098C11.041,2.25,10.768,2.411,10.5,2.58C9.962,2.917,9.439,3.286,8.933,3.686
	C7.917,4.485,6.965,5.407,6.09,6.446c-3.298,3.917-5.114,9.071-5.114,14.515c0,0.173,0.002,0.346,0.006,0.519
	c0.121,8.405,2.429,15.485,7.958,21.108c-1.989,0.352-3.014,0.237-5.097,0.669C1.731,43.696,0,45.69,0,47.847
	s2.058,4.227,4.216,4.227c4.778,0,9.599-0.678,13.653-2.604c4.234,2.175,8.387,3.088,13.366,3.088c4.979,0,9.186-0.913,13.42-3.088
	c4.054,1.927,8.688,2.61,13.467,2.61c2.157,0,4.372-2.075,4.372-4.232S61.916,44.632,59.684,43.541z"/>
<g>
	<g>
		<linearGradient id="SVGID_1_" gradientUnits="userSpaceOnUse" x1="79.0674" y1="12.144" x2="79.0674" y2="49.9869">
			<stop  offset="0" style="stop-color:#4A81C2"/>
			<stop  offset="1" style="stop-color:#242A64"/>
		</linearGradient>
		<path fill="url(#SVGID_1_)" d="M89.986,46.093c-0.349,0-0.718-0.054-1.098-0.16c-0.39-0.108-0.76-0.274-1.101-0.492
			c-0.363-0.229-0.673-0.522-0.915-0.869c-0.282-0.401-0.427-0.856-0.427-1.349V31.912H71.725V43.4c0,0.671-0.17,1.263-0.507,1.76
			c-0.29,0.427-0.885,0.934-2.081,0.934h-0.106c-0.345,0-0.717-0.053-1.105-0.157c-0.407-0.109-0.786-0.276-1.128-0.496
			c-0.353-0.222-0.662-0.506-0.913-0.841c-0.308-0.409-0.464-0.872-0.464-1.376V14.508c0-0.645,0.139-1.216,0.414-1.696
			c0.26-0.455,0.831-0.998,2.068-0.998h0.176c0.344,0,0.716,0.053,1.106,0.158c0.385,0.104,0.753,0.254,1.096,0.447
			c0.385,0.219,0.708,0.493,0.964,0.816c0.314,0.398,0.48,0.875,0.48,1.378v11.17h14.721V14.508c0-0.645,0.139-1.215,0.414-1.696
			c0.259-0.455,0.829-0.998,2.067-0.998h0.141c0.344,0,0.716,0.053,1.106,0.158c0.386,0.104,0.754,0.254,1.096,0.447
			c0.386,0.219,0.71,0.494,0.965,0.817c0.313,0.397,0.479,0.874,0.479,1.377V43.4c0,0.68-0.181,1.278-0.538,1.779
			c-0.298,0.418-0.896,0.914-2.05,0.914H89.986z"/>
		<path fill="#FFFFFF" d="M89.068,12.815c0.258,0,0.541,0.042,0.847,0.124c0.305,0.083,0.593,0.2,0.864,0.353
			c0.27,0.153,0.494,0.341,0.67,0.565c0.176,0.223,0.265,0.476,0.265,0.758V43.4c0,0.472-0.118,0.87-0.353,1.199
			c-0.236,0.33-0.647,0.494-1.235,0.494h-0.141c-0.259,0-0.535-0.041-0.829-0.123c-0.294-0.082-0.57-0.205-0.829-0.371
			c-0.259-0.163-0.471-0.364-0.635-0.6c-0.165-0.234-0.247-0.493-0.247-0.776V30.912H70.725V43.4c0,0.472-0.112,0.87-0.335,1.199
			c-0.224,0.33-0.641,0.494-1.252,0.494h-0.106c-0.259,0-0.541-0.041-0.846-0.123s-0.588-0.205-0.847-0.371
			c-0.259-0.163-0.477-0.364-0.653-0.6c-0.176-0.234-0.264-0.493-0.264-0.776V14.508c0-0.47,0.093-0.87,0.282-1.199
			s0.588-0.494,1.2-0.494h0.176c0.259,0,0.541,0.042,0.847,0.124c0.306,0.083,0.594,0.2,0.865,0.353
			c0.27,0.153,0.493,0.341,0.67,0.565c0.176,0.223,0.265,0.476,0.265,0.758v12.17h16.721V14.508c0-0.47,0.094-0.87,0.282-1.199
			c0.188-0.33,0.588-0.494,1.199-0.494H89.068 M89.068,10.815h-0.141c-1.809,0-2.616,0.942-2.937,1.503
			c-0.361,0.631-0.545,1.369-0.545,2.19v10.276H72.725v-10.17c0-0.731-0.24-1.422-0.695-1.998c-0.336-0.426-0.757-0.784-1.252-1.064
			c-0.422-0.237-0.867-0.419-1.331-0.544c-0.478-0.128-0.937-0.193-1.368-0.193h-0.176c-1.808,0-2.615,0.94-2.936,1.501
			c-0.362,0.633-0.545,1.371-0.545,2.192v28.715c0,0.715,0.23,1.399,0.666,1.979c0.322,0.43,0.722,0.797,1.185,1.09
			c0.414,0.266,0.888,0.475,1.395,0.61c0.474,0.127,0.933,0.191,1.365,0.191h0.106c1.633,0,2.482-0.745,2.907-1.371
			c0.452-0.668,0.68-1.448,0.68-2.322V32.912h12.721v10.311c0,0.692,0.211,1.359,0.612,1.928c0.313,0.45,0.721,0.837,1.205,1.142
			c0.409,0.262,0.871,0.469,1.357,0.604c0.467,0.13,0.926,0.196,1.366,0.196h0.141c1.58,0,2.429-0.724,2.863-1.331
			c0.482-0.677,0.725-1.471,0.725-2.362V14.614c0-0.731-0.24-1.422-0.695-1.998c-0.334-0.424-0.756-0.783-1.252-1.064
			c-0.42-0.237-0.865-0.418-1.329-0.544C89.958,10.879,89.5,10.815,89.068,10.815L89.068,10.815z"/>
	</g>
	<g>
		<linearGradient id="SVGID_2_" gradientUnits="userSpaceOnUse" x1="104.7129" y1="11.0347" x2="104.7129" y2="50.0995">
			<stop  offset="0" style="stop-color:#4A81C2"/>
			<stop  offset="1" style="stop-color:#242A64"/>
		</linearGradient>
		<path fill="url(#SVGID_2_)" d="M104.766,46.235c-1.568,0-2.958-0.312-4.132-0.927c-1.16-0.605-2.138-1.423-2.906-2.43
			c-0.75-0.981-1.327-2.127-1.714-3.404c-0.376-1.242-0.593-2.543-0.642-3.868c-0.075-1.475,0.085-2.953,0.476-4.376
			c0.392-1.43,0.985-2.73,1.762-3.864c0.793-1.156,1.771-2.101,2.907-2.807c1.18-0.731,2.515-1.103,3.967-1.103
			c1.588,0,2.995,0.311,4.181,0.922c1.172,0.607,2.167,1.429,2.958,2.443c0.776,0.997,1.373,2.161,1.772,3.46
			c0.389,1.269,0.611,2.607,0.661,3.979c0.075,1.65-0.111,3.219-0.556,4.653c-0.447,1.441-1.097,2.713-1.932,3.778
			c-0.844,1.078-1.855,1.943-3.007,2.571C107.386,45.909,106.108,46.235,104.766,46.235z M104.625,29.372
			c-0.396,0-0.737,0.136-1.075,0.427c-0.418,0.361-0.785,0.843-1.088,1.43c-0.326,0.631-0.583,1.332-0.763,2.085
			c-0.176,0.734-0.245,1.449-0.204,2.123c0.022,0.669,0.104,1.321,0.244,1.966c0.131,0.605,0.333,1.151,0.599,1.625
			c0.244,0.435,0.553,0.775,0.945,1.042c0.346,0.235,0.809,0.354,1.377,0.354c0.373,0,0.731-0.132,1.098-0.403
			c0.433-0.32,0.818-0.762,1.147-1.313c0.353-0.592,0.638-1.274,0.847-2.031c0.206-0.739,0.289-1.521,0.249-2.328
			c-0.023-0.656-0.11-1.304-0.258-1.939c-0.138-0.595-0.357-1.134-0.65-1.604c-0.277-0.442-0.617-0.792-1.039-1.067
			C105.676,29.492,105.208,29.372,104.625,29.372z"/>
		<path fill="#FFFFFF" d="M104.484,24.457c1.435,0,2.675,0.271,3.723,0.811c1.045,0.542,1.922,1.265,2.627,2.169
			c0.706,0.906,1.24,1.953,1.605,3.14c0.364,1.188,0.57,2.429,0.617,3.722c0.071,1.552-0.101,2.994-0.511,4.321
			c-0.413,1.33-1,2.482-1.764,3.458c-0.765,0.977-1.664,1.745-2.699,2.31c-1.035,0.566-2.14,0.848-3.316,0.848
			c-1.411,0-2.634-0.271-3.668-0.813c-1.035-0.54-1.894-1.257-2.575-2.15c-0.683-0.894-1.199-1.924-1.552-3.088
			s-0.553-2.369-0.6-3.615c-0.071-1.387,0.076-2.746,0.441-4.074c0.364-1.329,0.905-2.517,1.623-3.563
			c0.717-1.046,1.588-1.887,2.61-2.522C102.068,24.774,103.214,24.457,104.484,24.457 M104.661,41.424
			c0.587,0,1.152-0.199,1.693-0.6c0.541-0.4,1.011-0.935,1.411-1.605c0.4-0.67,0.717-1.428,0.952-2.275
			c0.235-0.846,0.33-1.728,0.283-2.645c-0.024-0.706-0.118-1.411-0.283-2.117c-0.164-0.706-0.423-1.34-0.775-1.905
			c-0.353-0.564-0.8-1.022-1.34-1.375c-0.542-0.353-1.2-0.529-1.976-0.529c-0.635,0-1.211,0.224-1.729,0.67
			s-0.958,1.023-1.323,1.729c-0.365,0.706-0.647,1.476-0.847,2.311c-0.2,0.835-0.276,1.641-0.229,2.417
			c0.023,0.706,0.111,1.411,0.265,2.117c0.152,0.705,0.388,1.341,0.705,1.904c0.317,0.564,0.735,1.024,1.252,1.377
			C103.237,41.248,103.884,41.424,104.661,41.424 M104.484,22.457c-1.642,0-3.154,0.421-4.494,1.252
			c-1.256,0.78-2.334,1.82-3.206,3.091c-0.84,1.226-1.48,2.627-1.902,4.166c-0.419,1.526-0.591,3.109-0.51,4.705
			c0.051,1.383,0.282,2.769,0.683,4.093c0.422,1.392,1.054,2.645,1.877,3.722c0.857,1.124,1.947,2.035,3.239,2.71
			c1.316,0.688,2.862,1.039,4.594,1.039c1.512,0,2.951-0.368,4.276-1.093c1.27-0.693,2.385-1.646,3.313-2.831
			c0.91-1.162,1.616-2.541,2.1-4.099c0.479-1.547,0.68-3.23,0.599-5.005c-0.053-1.441-0.29-2.866-0.703-4.216
			c-0.437-1.419-1.089-2.691-1.94-3.783c-0.881-1.13-1.986-2.043-3.285-2.716C107.794,22.804,106.233,22.457,104.484,22.457
			L104.484,22.457z M104.661,39.424c-0.364,0-0.638-0.062-0.816-0.183c-0.259-0.177-0.467-0.407-0.634-0.703
			c-0.218-0.388-0.384-0.84-0.493-1.347c-0.128-0.587-0.202-1.179-0.221-1.759l-0.001-0.028l-0.002-0.029
			c-0.035-0.575,0.025-1.19,0.178-1.828c0.162-0.675,0.39-1.3,0.679-1.858c0.245-0.475,0.532-0.856,0.854-1.134
			c0.196-0.169,0.32-0.184,0.421-0.184c0.378,0,0.675,0.069,0.884,0.205c0.296,0.194,0.538,0.443,0.737,0.761
			c0.233,0.374,0.41,0.811,0.522,1.297c0.135,0.575,0.213,1.157,0.232,1.733c0.037,0.73-0.035,1.406-0.211,2.04
			c-0.187,0.672-0.436,1.272-0.743,1.786c-0.261,0.438-0.559,0.782-0.884,1.023C104.884,39.424,104.722,39.424,104.661,39.424
			L104.661,39.424z"/>
	</g>
	<g>
		<linearGradient id="SVGID_3_" gradientUnits="userSpaceOnUse" x1="122.0874" y1="12.2222" x2="122.0874" y2="49.9595">
			<stop  offset="0" style="stop-color:#4A81C2"/>
			<stop  offset="1" style="stop-color:#242A64"/>
		</linearGradient>
		<path fill="url(#SVGID_3_)" d="M121.947,46.376c-1.639,0-2.949-0.391-3.895-1.16c-0.945-0.77-1.602-2.024-1.954-3.731
			l-0.303-2.687v-25.63c0-0.651,0.178-1.24,0.53-1.75c0.296-0.43,0.87-0.943,1.917-0.943h0.423c0.325,0,0.664,0.047,1.005,0.141
			c0.371,0.101,0.715,0.265,1.025,0.487c0.316,0.23,0.58,0.511,0.789,0.84c0.245,0.387,0.368,0.834,0.368,1.331l0.035,25.87
			c0.02,0.104,0.034,0.2,0.045,0.288c0.007,0.058,0.018,0.112,0.032,0.169c0.09,0.443,0.198,0.647,0.334,0.647
			c-0.012,0,0.129-0.019,0.495-0.198c0.411-0.199,0.613-0.344,0.712-0.432c0.295-0.298,0.579-0.521,0.849-0.656
			c0.31-0.154,0.675-0.229,1.119-0.229c0.438,0,0.869,0.186,1.281,0.552c0.281,0.252,0.54,0.547,0.773,0.881
			c0.214,0.308,0.394,0.602,0.541,0.881c0.196,0.378,0.31,0.651,0.31,0.943v0.106c0,0.489-0.132,0.955-0.393,1.383
			c-0.221,0.364-0.51,0.694-0.856,0.979l-0.003-0.003c-0.545,0.434-1.208,0.854-1.972,1.247
			C124.288,46.149,123.208,46.376,121.947,46.376z"/>
		<path fill="#FFFFFF" d="M118.666,11.475c0.234,0,0.482,0.035,0.741,0.105s0.493,0.183,0.706,0.335
			c0.211,0.153,0.387,0.341,0.528,0.564c0.142,0.224,0.212,0.489,0.212,0.794l0.035,25.965c0.023,0.117,0.041,0.223,0.053,0.316
			c0.012,0.095,0.029,0.188,0.053,0.283c0.188,0.939,0.623,1.409,1.306,1.409c0.212,0,0.523-0.099,0.935-0.3
			c0.411-0.199,0.723-0.393,0.936-0.581c0.258-0.259,0.47-0.429,0.635-0.512c0.164-0.082,0.389-0.123,0.67-0.123
			c0.188,0,0.394,0.101,0.618,0.3c0.222,0.199,0.428,0.436,0.617,0.706c0.188,0.27,0.346,0.528,0.476,0.774
			c0.129,0.247,0.194,0.406,0.194,0.477v0.106c0,0.305-0.083,0.594-0.247,0.863c-0.165,0.272-0.377,0.513-0.636,0.725l0.036-0.035
			c-0.494,0.398-1.105,0.788-1.835,1.164c-0.729,0.376-1.646,0.564-2.751,0.564c-1.412,0-2.499-0.313-3.264-0.936
			c-0.765-0.623-1.3-1.676-1.605-3.158l-0.282-2.54V13.168c0-0.447,0.118-0.841,0.354-1.182c0.234-0.34,0.6-0.511,1.094-0.511
			H118.666 M118.666,9.475h-0.423c-1.156,0-2.129,0.489-2.741,1.377c-0.469,0.679-0.707,1.459-0.707,2.316v25.575v0.11l0.012,0.11
			l0.282,2.54l0.01,0.093l0.019,0.091c0.4,1.938,1.174,3.386,2.301,4.305c1.13,0.919,2.653,1.385,4.527,1.385
			c1.422,0,2.656-0.265,3.668-0.787c0.826-0.426,1.548-0.884,2.146-1.362l0.004,0.004c0.435-0.357,0.798-0.772,1.079-1.236
			c0.354-0.583,0.536-1.224,0.536-1.899v-0.106c0-0.493-0.168-0.917-0.421-1.401c-0.175-0.33-0.377-0.661-0.607-0.992
			c-0.28-0.4-0.589-0.752-0.922-1.051c-0.611-0.542-1.266-0.813-1.955-0.813c-0.603,0-1.114,0.109-1.564,0.334
			c-0.332,0.167-0.659,0.409-1.022,0.757l-0.034-25.552c0-0.686-0.176-1.312-0.521-1.859c-0.279-0.44-0.629-0.813-1.043-1.113
			c-0.416-0.299-0.868-0.514-1.354-0.647C119.507,9.534,119.08,9.475,118.666,9.475L118.666,9.475z"/>
	</g>
	<g>
		<linearGradient id="SVGID_4_" gradientUnits="userSpaceOnUse" x1="134.7515" y1="12.1313" x2="134.7515" y2="49.9682">
			<stop  offset="0" style="stop-color:#4A81C2"/>
			<stop  offset="1" style="stop-color:#242A64"/>
		</linearGradient>
		<path fill="url(#SVGID_4_)" d="M134,46.387c-0.128,0-0.266-0.016-0.419-0.047h-0.101c-0.332,0-0.745-0.091-1.3-0.284
			c-0.53-0.188-1.051-0.463-1.553-0.817c-0.517-0.362-0.985-0.822-1.39-1.364c-0.47-0.635-0.708-1.387-0.708-2.237V25.444
			c0-0.739,0.282-1.402,0.815-1.918c0.525-0.507,1.224-0.775,2.019-0.775h0.106c0.319,0,0.656,0.047,1.002,0.141
			c0.363,0.099,0.699,0.25,0.999,0.452c0.34,0.225,0.62,0.531,0.83,0.908c0.215,0.395,0.32,0.829,0.32,1.299v13.558
			c0.02,0.104,0.034,0.199,0.045,0.286c0.007,0.056,0.017,0.106,0.03,0.158c0.069,0.331,0.139,0.531,0.191,0.65
			c0.085-0.013,0.232-0.059,0.5-0.188c0.43-0.208,0.629-0.359,0.71-0.432c0.296-0.298,0.578-0.52,0.845-0.655
			c0.317-0.156,0.682-0.23,1.124-0.23c0.438,0,0.87,0.187,1.282,0.553c0.277,0.247,0.529,0.534,0.771,0.877
			c0.217,0.313,0.397,0.608,0.544,0.889c0.224,0.424,0.308,0.68,0.308,0.938v0.105c0,0.491-0.132,0.957-0.392,1.384
			c-0.221,0.364-0.51,0.694-0.856,0.979l-0.003-0.003c-0.543,0.434-1.188,0.842-1.972,1.247c-0.868,0.448-1.948,0.675-3.21,0.675
			c-0.091,0-0.161,0.001-0.212,0.008C134.242,46.373,134.124,46.387,134,46.387z M131.893,19.318c-0.948,0-1.761-0.412-2.35-1.19
			c-0.532-0.705-0.802-1.531-0.802-2.456c0-0.951,0.271-1.786,0.808-2.48c0.591-0.763,1.4-1.165,2.344-1.165
			c0.905,0,1.713,0.392,2.336,1.132c0.588,0.699,0.887,1.545,0.887,2.513c0,0.941-0.296,1.778-0.881,2.488
			C133.614,18.917,132.803,19.318,131.893,19.318z"/>
		<path fill="#FFFFFF" d="M131.893,13.027c0.612,0,1.136,0.259,1.57,0.776c0.436,0.518,0.652,1.141,0.652,1.87
			c0,0.706-0.217,1.323-0.652,1.852c-0.435,0.529-0.958,0.793-1.57,0.793c-0.635,0-1.151-0.264-1.552-0.793
			c-0.399-0.529-0.6-1.146-0.6-1.852c0-0.729,0.2-1.352,0.6-1.87C130.742,13.286,131.258,13.027,131.893,13.027 M131.471,23.751
			c0.234,0,0.48,0.036,0.74,0.106c0.259,0.07,0.494,0.176,0.705,0.317c0.213,0.141,0.382,0.33,0.513,0.564
			c0.128,0.236,0.193,0.506,0.193,0.812v13.653c0.023,0.117,0.041,0.224,0.053,0.316c0.012,0.096,0.029,0.188,0.054,0.283
			c0.093,0.447,0.217,0.794,0.369,1.041c0.153,0.246,0.418,0.369,0.794,0.369c0.212,0,0.523-0.099,0.936-0.3
			c0.411-0.199,0.723-0.394,0.935-0.581c0.259-0.259,0.47-0.429,0.635-0.513c0.164-0.081,0.389-0.122,0.671-0.122
			c0.188,0,0.394,0.101,0.617,0.3s0.428,0.436,0.617,0.705c0.188,0.271,0.347,0.529,0.476,0.776c0.13,0.246,0.194,0.404,0.194,0.476
			v0.105c0,0.306-0.082,0.595-0.246,0.864c-0.165,0.272-0.377,0.513-0.636,0.725l0.036-0.035c-0.495,0.4-1.106,0.787-1.836,1.164
			c-0.729,0.376-1.646,0.563-2.751,0.563c-0.211,0-0.358,0.012-0.441,0.036c-0.026,0.007-0.06,0.011-0.098,0.011
			c-0.078,0-0.181-0.016-0.308-0.047h-0.212c-0.211,0-0.534-0.076-0.97-0.229c-0.436-0.154-0.87-0.382-1.305-0.689
			c-0.436-0.305-0.824-0.687-1.165-1.145c-0.341-0.46-0.511-1.006-0.511-1.641V25.444c0-0.47,0.17-0.87,0.511-1.199
			c0.341-0.329,0.782-0.494,1.323-0.494H131.471 M131.893,11.027c-1.246,0-2.358,0.551-3.133,1.551
			c-0.677,0.876-1.019,1.917-1.019,3.094c0,1.147,0.338,2.176,1.004,3.058c0.774,1.024,1.893,1.588,3.147,1.588
			c1.22,0,2.297-0.527,3.116-1.524c0.723-0.878,1.106-1.958,1.106-3.121c0-1.193-0.388-2.285-1.122-3.157
			C134.175,11.542,133.103,11.027,131.893,11.027L131.893,11.027z M131.471,21.751h-0.106c-1.06,0-1.997,0.365-2.713,1.055
			c-0.733,0.71-1.121,1.622-1.121,2.638v16.193c0,1.069,0.304,2.021,0.903,2.831c0.471,0.632,1.017,1.167,1.626,1.593
			c0.567,0.402,1.171,0.719,1.783,0.936c0.682,0.238,1.184,0.344,1.638,0.344h0.007c0.18,0.031,0.35,0.047,0.513,0.047
			s0.322-0.016,0.477-0.047c0.019,0,0.04,0,0.063,0c1.423,0,2.657-0.265,3.668-0.786c0.848-0.438,1.55-0.884,2.146-1.362
			l0.004,0.004c0.435-0.357,0.798-0.772,1.079-1.236c0.354-0.582,0.535-1.223,0.535-1.9v-0.105c0-0.5-0.17-0.925-0.426-1.409
			c-0.16-0.308-0.363-0.641-0.601-0.982c-0.289-0.412-0.6-0.765-0.931-1.059c-0.601-0.535-1.256-0.807-1.947-0.807
			c-0.6,0-1.108,0.107-1.557,0.329c-0.297,0.151-0.582,0.353-0.889,0.63V25.55c0-0.639-0.146-1.232-0.436-1.765
			c-0.301-0.539-0.688-0.961-1.165-1.277c-0.384-0.257-0.819-0.454-1.286-0.581C132.304,21.81,131.879,21.751,131.471,21.751
			L131.471,21.751z"/>
	</g>
	<g>
		<linearGradient id="SVGID_5_" gradientUnits="userSpaceOnUse" x1="152.4243" y1="12.1572" x2="152.4243" y2="49.9858">
			<stop  offset="0" style="stop-color:#4A81C2"/>
			<stop  offset="1" style="stop-color:#242A64"/>
		</linearGradient>
		<path fill="url(#SVGID_5_)" d="M145.864,46.093c-0.349,0-0.718-0.054-1.098-0.16c-0.39-0.108-0.76-0.273-1.101-0.492
			c-0.362-0.229-0.672-0.521-0.914-0.867c-0.284-0.405-0.428-0.859-0.428-1.351v-28.08c0.066-0.92,0.319-1.579,0.754-2.032
			c0.383-0.399,0.869-0.699,1.447-0.892c0.548-0.146,1.082-0.25,1.647-0.325c0.541-0.072,1.065-0.132,1.571-0.181
			c0.518-0.049,0.998-0.08,1.441-0.093c0.438-0.012,0.787-0.018,1.053-0.018c1.381,0,2.791,0.15,4.192,0.445
			c1.452,0.306,2.782,0.845,3.953,1.603c1.195,0.775,2.185,1.81,2.943,3.077c0.771,1.292,1.175,2.902,1.199,4.787
			c0,1.627-0.267,3.046-0.791,4.229c-0.521,1.172-1.218,2.186-2.071,3.011c-0.839,0.814-1.814,1.482-2.9,1.987
			c-1.042,0.484-2.123,0.867-3.214,1.14c-1.072,0.268-2.151,0.46-3.207,0.571c-0.656,0.069-1.276,0.125-1.855,0.169V43.4
			c0,0.641-0.139,1.21-0.412,1.692c-0.264,0.459-0.834,1.001-2.07,1.001H145.864z M148.556,26.457
			c0.227-0.02,0.466-0.042,0.717-0.067c0.648-0.066,1.312-0.178,1.972-0.332c0.648-0.151,1.3-0.365,1.936-0.635
			c0.603-0.255,1.143-0.579,1.607-0.962c0.437-0.361,0.78-0.793,1.049-1.322c0.257-0.502,0.387-1.115,0.387-1.822
			c0-0.738-0.154-1.318-0.473-1.773c-0.35-0.5-0.78-0.884-1.317-1.176c-0.57-0.31-1.226-0.529-1.946-0.651
			c-0.774-0.131-1.544-0.197-2.284-0.197c-0.394,0-0.814,0.022-1.263,0.066c-0.132,0.013-0.26,0.026-0.384,0.039V26.457z"/>
		<path fill="#FFFFFF" d="M150.238,12.604c1.316,0,2.646,0.141,3.986,0.423c1.341,0.282,2.545,0.771,3.616,1.464
			c1.069,0.694,1.945,1.611,2.628,2.751c0.682,1.141,1.035,2.57,1.058,4.286c0,1.481-0.235,2.751-0.705,3.81
			c-0.471,1.058-1.088,1.958-1.853,2.699c-0.764,0.741-1.641,1.34-2.627,1.799c-0.988,0.459-2,0.818-3.034,1.076
			c-1.036,0.259-2.059,0.441-3.069,0.547s-1.929,0.183-2.751,0.229V43.4c0,0.472-0.096,0.87-0.282,1.199
			c-0.189,0.33-0.589,0.494-1.2,0.494h-0.141c-0.259,0-0.535-0.041-0.829-0.123c-0.295-0.082-0.57-0.205-0.829-0.371
			c-0.259-0.163-0.471-0.364-0.636-0.6c-0.164-0.234-0.246-0.493-0.246-0.776v-28.08c0.046-0.611,0.205-1.058,0.476-1.34
			s0.617-0.494,1.041-0.635c0.447-0.118,0.935-0.212,1.464-0.282c0.529-0.071,1.041-0.129,1.535-0.176
			c0.493-0.047,0.952-0.077,1.375-0.089C149.638,12.609,149.979,12.604,150.238,12.604 M147.556,27.526
			c0.518-0.023,1.123-0.071,1.817-0.141c0.693-0.071,1.394-0.188,2.099-0.353c0.706-0.165,1.405-0.394,2.099-0.688
			c0.694-0.294,1.312-0.664,1.854-1.111c0.54-0.446,0.975-0.993,1.304-1.64c0.33-0.646,0.495-1.405,0.495-2.275
			c0-0.94-0.218-1.723-0.653-2.346c-0.436-0.623-0.987-1.117-1.658-1.482c-0.67-0.364-1.423-0.617-2.258-0.758
			s-1.652-0.211-2.451-0.211c-0.424,0-0.876,0.024-1.358,0.07c-0.482,0.048-0.912,0.095-1.288,0.141V27.526 M150.238,10.604
			c-0.272,0-0.631,0.006-1.076,0.018c-0.476,0.014-0.983,0.047-1.514,0.098c-0.518,0.049-1.054,0.11-1.609,0.185
			c-0.604,0.081-1.18,0.192-1.707,0.331l-0.063,0.016l-0.061,0.021c-0.733,0.244-1.356,0.63-1.854,1.148
			c-0.599,0.625-0.944,1.492-1.025,2.574l-0.006,0.075v0.075v28.08c0,0.69,0.21,1.355,0.607,1.923
			c0.32,0.457,0.727,0.842,1.208,1.146c0.411,0.264,0.873,0.471,1.359,0.605c0.466,0.13,0.926,0.196,1.365,0.196h0.141
			c1.805,0,2.613-0.938,2.935-1.499c0.365-0.644,0.548-1.379,0.548-2.194v-9.857c0.311-0.028,0.631-0.06,0.96-0.094
			c1.102-0.116,2.228-0.316,3.346-0.596c1.151-0.287,2.292-0.692,3.392-1.202c1.188-0.552,2.257-1.285,3.177-2.177
			c0.944-0.915,1.714-2.032,2.287-3.321c0.583-1.313,0.878-2.868,0.878-4.623c-0.027-2.09-0.479-3.868-1.341-5.312
			c-0.838-1.4-1.934-2.545-3.256-3.403c-1.276-0.826-2.721-1.412-4.293-1.743C153.167,10.76,151.688,10.604,150.238,10.604
			L150.238,10.604z M149.556,18.54c0.227-0.014,0.443-0.021,0.646-0.021c0.685,0,1.397,0.062,2.118,0.184
			c0.611,0.104,1.162,0.286,1.637,0.544c0.396,0.215,0.715,0.5,0.974,0.871c0.193,0.277,0.292,0.681,0.292,1.2
			c0,0.547-0.093,1.007-0.276,1.366c-0.207,0.407-0.467,0.736-0.797,1.008c-0.389,0.321-0.847,0.594-1.358,0.811
			c-0.586,0.249-1.182,0.444-1.773,0.582c-0.488,0.114-0.979,0.203-1.462,0.266V18.54L149.556,18.54z"/>
	</g>
	<g>
		<linearGradient id="SVGID_6_" gradientUnits="userSpaceOnUse" x1="170.6821" y1="11.0498" x2="170.6821" y2="50.0978">
			<stop  offset="0" style="stop-color:#4A81C2"/>
			<stop  offset="1" style="stop-color:#242A64"/>
		</linearGradient>
		<path fill="url(#SVGID_6_)" d="M167.417,46.235c-0.333,0-0.687-0.056-1.049-0.166c-0.36-0.111-0.689-0.261-0.982-0.445
			c-0.343-0.217-0.626-0.492-0.846-0.819c-0.252-0.378-0.38-0.814-0.38-1.298V26.079c0-0.619,0.131-1.168,0.39-1.633
			c0.252-0.452,0.8-0.99,1.985-0.99h0.106c0.751,0,1.45,0.17,2.077,0.507c0.31,0.167,0.757,0.499,1.024,1.114
			c0.409-0.305,0.838-0.582,1.283-0.827c1.086-0.597,2.258-0.9,3.481-0.9c0.973,0,1.66,0.304,2.042,0.903
			c0.249,0.388,0.424,0.852,0.521,1.379c0.059,0.204,0.097,0.428,0.111,0.666c0.013,0.209,0.021,0.418,0.021,0.627l-0.006,0.104
			c-0.066,0.637-0.234,1.539-0.927,2.01c-0.427,0.291-0.983,0.438-1.655,0.438c-0.504,0-1.051,0.073-1.628,0.217
			c-0.535,0.134-1.009,0.356-1.447,0.681c-0.421,0.311-0.787,0.752-1.09,1.312c-0.3,0.551-0.461,1.293-0.479,2.208v9.717
			c0,0.656-0.146,1.224-0.432,1.688c-0.262,0.426-0.813,0.934-1.944,0.934H167.417z"/>
		<path fill="#FFFFFF" d="M174.508,24.351c0.611,0,1.012,0.147,1.199,0.441c0.188,0.294,0.317,0.653,0.389,1.076
			c0.046,0.141,0.076,0.306,0.088,0.494c0.012,0.188,0.019,0.376,0.019,0.565c-0.071,0.682-0.236,1.111-0.495,1.287
			s-0.623,0.265-1.093,0.265c-0.589,0-1.212,0.083-1.87,0.247c-0.659,0.165-1.259,0.447-1.8,0.847s-1,0.947-1.375,1.64
			c-0.377,0.694-0.577,1.582-0.6,2.663v9.738c0,0.469-0.095,0.858-0.283,1.164c-0.188,0.305-0.552,0.458-1.093,0.458h-0.177
			c-0.234,0-0.488-0.041-0.758-0.123c-0.271-0.084-0.518-0.194-0.741-0.335c-0.224-0.142-0.406-0.319-0.547-0.529
			c-0.142-0.212-0.211-0.46-0.211-0.741V26.079c0-0.446,0.087-0.829,0.264-1.146s0.547-0.476,1.111-0.476h0.106
			c0.587,0,1.122,0.129,1.604,0.388c0.481,0.259,0.724,0.729,0.724,1.411v0.846c0.753-0.799,1.599-1.458,2.539-1.976
			C172.45,24.609,173.45,24.351,174.508,24.351 M174.508,22.351c-1.395,0-2.728,0.344-3.963,1.023
			c-0.184,0.101-0.365,0.207-0.543,0.318c-0.232-0.239-0.503-0.444-0.809-0.609c-0.775-0.416-1.634-0.626-2.552-0.626h-0.106
			c-1.759,0-2.546,0.942-2.858,1.503c-0.343,0.615-0.517,1.329-0.517,2.12v17.427c0,0.676,0.189,1.315,0.548,1.853
			c0.299,0.445,0.682,0.817,1.14,1.107c0.373,0.234,0.781,0.42,1.221,0.557c0.466,0.142,0.917,0.212,1.349,0.212h0.177
			c1.678,0,2.472-0.883,2.796-1.41c0.385-0.623,0.58-1.368,0.58-2.212v-9.738c0.015-0.701,0.139-1.306,0.357-1.708
			c0.233-0.433,0.504-0.764,0.806-0.986c0.332-0.245,0.69-0.414,1.096-0.515c0.498-0.125,0.964-0.188,1.386-0.188
			c0.876,0,1.623-0.206,2.219-0.612c1.155-0.787,1.308-2.251,1.358-2.732l0.011-0.104v-0.104c0-0.23-0.008-0.459-0.022-0.689
			c-0.019-0.292-0.063-0.572-0.135-0.832c-0.122-0.636-0.342-1.205-0.653-1.692C176.997,23.093,176.173,22.351,174.508,22.351
			L174.508,22.351z"/>
	</g>
	<g>
		<linearGradient id="SVGID_7_" gradientUnits="userSpaceOnUse" x1="183.7153" y1="11.0347" x2="183.7153" y2="50.0995">
			<stop  offset="0" style="stop-color:#4A81C2"/>
			<stop  offset="1" style="stop-color:#242A64"/>
		</linearGradient>
		<path fill="url(#SVGID_7_)" d="M184.385,46.235c-0.951,0-1.875-0.118-2.745-0.352c-0.909-0.244-1.743-0.651-2.479-1.209
			c-0.738-0.561-1.37-1.28-1.879-2.141c-0.507-0.852-0.869-1.891-1.078-3.088c-0.092-0.36-0.172-0.87-0.222-1.444
			c-0.05-0.55-0.075-1.108-0.075-1.657c0-1.544,0.221-3.091,0.656-4.599c0.439-1.515,1.063-2.889,1.857-4.085
			c0.808-1.219,1.781-2.224,2.894-2.988c1.178-0.807,2.496-1.216,3.919-1.216c1.751,0,3.227,0.524,4.387,1.559
			c1.193,1.064,1.799,2.562,1.799,4.45c0,1.423-0.393,2.713-1.166,3.832c-0.724,1.049-1.635,1.954-2.707,2.69
			c-1.037,0.712-2.149,1.291-3.306,1.719c-0.806,0.297-1.539,0.513-2.22,0.651c0.088,0.417,0.216,0.755,0.376,0.998
			c0.156,0.231,0.335,0.413,0.528,0.535c0.227,0.142,0.455,0.238,0.698,0.294c0.279,0.065,0.57,0.098,0.869,0.098
			c0.517,0,0.936-0.073,1.211-0.211c0.249-0.125,0.496-0.265,0.738-0.418l0.204-0.167c0.339-0.277,0.617-0.458,0.877-0.568
			c0.284-0.123,0.596-0.187,0.921-0.187h0.177c0.46,0,0.838,0.247,1.082,0.433c0.255,0.196,0.5,0.427,0.755,0.71
			c0.25,0.278,0.47,0.569,0.653,0.866c0.23,0.37,0.364,0.716,0.406,1.055l0.008,0.062v0.167c0,0.409-0.114,0.818-0.341,1.218
			c-0.188,0.327-0.421,0.629-0.693,0.901l-0.047,0.048l-0.054,0.04c-0.983,0.75-1.96,1.279-2.902,1.571
			C186.561,46.089,185.517,46.235,184.385,46.235z M185.162,29.478c-0.229,0-0.451,0.081-0.678,0.247
			c-0.31,0.228-0.601,0.536-0.866,0.915c-0.273,0.389-0.52,0.842-0.732,1.348c0.032-0.014,0.064-0.028,0.096-0.042
			c0.532-0.246,0.989-0.523,1.357-0.821c0.346-0.281,0.615-0.576,0.802-0.877c0.121-0.195,0.201-0.376,0.238-0.534
			c-0.033-0.103-0.063-0.177-0.089-0.229C185.258,29.48,185.216,29.478,185.162,29.478z"/>
		<path fill="#FFFFFF" d="M185.233,24.457c1.505,0,2.746,0.436,3.722,1.305c0.976,0.87,1.464,2.105,1.464,3.704
			c0,1.224-0.33,2.311-0.988,3.264s-1.476,1.764-2.451,2.434c-0.977,0.671-2.005,1.205-3.087,1.606
			c-1.082,0.398-2.046,0.646-2.893,0.739c0,0.19,0,0.378,0,0.564c0,0.189,0.012,0.343,0.035,0.46
			c0.117,0.564,0.294,1.022,0.528,1.376c0.236,0.352,0.513,0.63,0.83,0.829s0.652,0.341,1.006,0.422
			c0.352,0.082,0.717,0.123,1.093,0.123c0.682,0,1.234-0.104,1.658-0.316s0.834-0.458,1.234-0.741l-0.105,0.035
			c0.259-0.212,0.47-0.352,0.635-0.422c0.165-0.071,0.341-0.106,0.529-0.106h0.177c0.117,0,0.276,0.076,0.477,0.229
			c0.199,0.153,0.404,0.347,0.617,0.583c0.211,0.234,0.393,0.475,0.546,0.723c0.153,0.246,0.241,0.464,0.265,0.652v0.105
			c0,0.236-0.07,0.477-0.211,0.725c-0.142,0.246-0.317,0.475-0.53,0.688c-0.894,0.682-1.758,1.152-2.592,1.411
			c-0.835,0.259-1.771,0.388-2.806,0.388c-0.869,0-1.699-0.106-2.486-0.317c-0.788-0.212-1.499-0.559-2.135-1.04
			c-0.635-0.482-1.176-1.1-1.622-1.854c-0.447-0.752-0.765-1.668-0.953-2.75c-0.094-0.376-0.165-0.831-0.211-1.359
			c-0.048-0.529-0.071-1.052-0.071-1.57c0-1.458,0.206-2.898,0.617-4.321c0.412-1.423,0.988-2.693,1.729-3.81
			c0.74-1.117,1.616-2.022,2.627-2.716C182.892,24.804,184.009,24.457,185.233,24.457 M181.317,33.487
			c0.776-0.141,1.469-0.353,2.082-0.635c0.61-0.282,1.134-0.6,1.569-0.953c0.435-0.353,0.775-0.729,1.022-1.129
			c0.248-0.399,0.383-0.776,0.406-1.129c-0.095-0.376-0.218-0.664-0.371-0.864c-0.152-0.2-0.44-0.3-0.864-0.3
			c-0.446,0-0.87,0.147-1.27,0.441c-0.4,0.294-0.765,0.677-1.094,1.146c-0.33,0.471-0.617,1.005-0.864,1.605
			C181.687,32.271,181.481,32.876,181.317,33.487 M185.233,22.457c-1.628,0-3.137,0.468-4.483,1.391
			c-1.22,0.838-2.284,1.935-3.163,3.261c-0.849,1.28-1.517,2.747-1.983,4.358c-0.462,1.599-0.696,3.24-0.696,4.878
			c0,0.579,0.026,1.167,0.079,1.75c0.052,0.59,0.134,1.127,0.245,1.591c0.231,1.289,0.632,2.42,1.192,3.361
			c0.48,0.812,1.063,1.517,1.732,2.1l-0.544,0.445l0.77-0.257c0.057,0.046,0.114,0.091,0.173,0.136
			c0.842,0.638,1.792,1.101,2.825,1.379c0.956,0.256,1.967,0.386,3.006,0.386c1.232,0,2.376-0.16,3.397-0.478
			c1.056-0.327,2.136-0.909,3.213-1.731l0.106-0.081l0.095-0.095c0.335-0.335,0.621-0.706,0.85-1.104
			c0.319-0.563,0.478-1.138,0.478-1.722v-0.105v-0.124l-0.016-0.123c-0.06-0.485-0.24-0.964-0.552-1.463
			c-0.211-0.341-0.467-0.681-0.757-1.003c-0.296-0.329-0.585-0.6-0.884-0.83c-0.572-0.436-1.124-0.644-1.696-0.644h-0.177
			c-0.462,0-0.907,0.091-1.322,0.271c-0.34,0.145-0.695,0.372-1.108,0.71l-0.158,0.13c-0.196,0.122-0.394,0.232-0.599,0.335
			c-0.035,0.018-0.237,0.105-0.764,0.105c-0.223,0-0.438-0.023-0.639-0.07c-0.139-0.032-0.267-0.087-0.396-0.169
			c-0.007-0.004-0.014-0.009-0.021-0.014c0.368-0.109,0.75-0.237,1.147-0.384c1.237-0.459,2.423-1.075,3.528-1.834
			c1.172-0.805,2.17-1.796,2.964-2.946c0.891-1.29,1.343-2.77,1.343-4.4c0-2.186-0.718-3.934-2.133-5.196
			C188.936,23.066,187.237,22.457,185.233,22.457L185.233,22.457z"/>
	</g>
	<g>
		<linearGradient id="SVGID_8_" gradientUnits="userSpaceOnUse" x1="197.897" y1="11.8608" x2="197.897" y2="50.0088">
			<stop  offset="0" style="stop-color:#4A81C2"/>
			<stop  offset="1" style="stop-color:#242A64"/>
		</linearGradient>
		<path fill="url(#SVGID_8_)" d="M199.307,46.235c-1.702,0-3.028-0.523-3.94-1.555c-0.832-0.94-1.427-2.253-1.767-3.9
			c-0.085-0.637-0.14-1.272-0.178-1.965c-0.035-0.677-0.064-1.359-0.088-2.047l-0.001-8.948h-0.588
			c-0.548,0-0.994-0.096-1.366-0.292c-0.388-0.203-0.693-0.492-0.907-0.855c-0.186-0.316-0.307-0.674-0.357-1.062
			c-0.041-0.298-0.062-0.613-0.062-0.942v-0.141c0-0.91,0.257-1.596,0.764-2.04c0.464-0.405,1.058-0.618,1.718-0.618h0.799v-3.198
			c0-0.497,0.123-0.944,0.367-1.329c0.216-0.342,0.507-0.635,0.863-0.867c0.327-0.213,0.69-0.371,1.079-0.467
			c0.36-0.09,0.715-0.136,1.055-0.136h0.176c1.119,0,1.67,0.489,1.935,0.9c0.298,0.465,0.441,1.051,0.441,1.794v3.303h2.422
			c1.142,0,1.91,0.347,2.286,1.03c0.273,0.496,0.407,1.19,0.407,2.123v0.141c0,0.892-0.235,1.569-0.698,2.011
			c-0.45,0.43-1.051,0.647-1.784,0.647h-2.633v8.631c0,0.458,0.011,0.966,0.034,1.527c0.021,0.53,0.084,1.021,0.189,1.504
			c0.064,0.308,0.133,0.5,0.185,0.616c0.084-0.014,0.231-0.06,0.502-0.19c0.407-0.199,0.608-0.344,0.705-0.43
			c0.297-0.299,0.579-0.52,0.847-0.656c0.316-0.157,0.682-0.231,1.124-0.231c0.438,0,0.87,0.187,1.282,0.553
			c0.283,0.255,0.542,0.551,0.772,0.882c0.214,0.307,0.395,0.602,0.542,0.884c0.224,0.426,0.308,0.681,0.308,0.938v0.106
			c0,0.487-0.131,0.952-0.39,1.381c-0.224,0.368-0.512,0.697-0.858,0.98l-0.003-0.003c-0.539,0.431-1.202,0.851-1.971,1.247
			C201.649,46.007,200.569,46.235,199.307,46.235z"/>
		<path fill="#FFFFFF" d="M196.874,16.872c0.541,0,0.904,0.147,1.094,0.441c0.188,0.294,0.282,0.711,0.282,1.252v4.303h3.422
			c0.752,0,1.223,0.171,1.41,0.512c0.188,0.341,0.283,0.888,0.283,1.641v0.141c0,0.612-0.13,1.041-0.389,1.288
			c-0.259,0.247-0.623,0.37-1.094,0.37h-3.633v9.631c0,0.471,0.011,0.994,0.035,1.569c0.023,0.578,0.093,1.135,0.212,1.677
			c0.094,0.446,0.217,0.793,0.37,1.041c0.152,0.245,0.417,0.37,0.793,0.37c0.213,0,0.523-0.101,0.936-0.3
			c0.411-0.201,0.723-0.395,0.935-0.583c0.259-0.259,0.47-0.428,0.635-0.512c0.165-0.082,0.389-0.123,0.671-0.123
			c0.188,0,0.394,0.101,0.617,0.3c0.224,0.201,0.429,0.436,0.617,0.706c0.188,0.27,0.347,0.528,0.477,0.776
			c0.129,0.245,0.193,0.405,0.193,0.475v0.106c0,0.307-0.083,0.594-0.246,0.864c-0.165,0.271-0.377,0.512-0.636,0.724l0.036-0.035
			c-0.495,0.4-1.106,0.788-1.835,1.164s-1.646,0.564-2.752,0.564c-1.41,0-2.475-0.406-3.191-1.217
			c-0.718-0.812-1.23-1.959-1.536-3.44c-0.069-0.54-0.122-1.146-0.158-1.816c-0.035-0.67-0.064-1.346-0.088-2.027V26.82h-1.588
			c-0.376,0-0.676-0.058-0.899-0.176c-0.224-0.117-0.394-0.276-0.511-0.477c-0.117-0.199-0.195-0.429-0.229-0.688
			c-0.035-0.259-0.053-0.529-0.053-0.812v-0.141c0-0.611,0.141-1.041,0.423-1.288c0.282-0.247,0.635-0.371,1.059-0.371h1.799v-4.198
			c0-0.305,0.07-0.57,0.212-0.793c0.141-0.223,0.329-0.411,0.564-0.564c0.234-0.153,0.493-0.265,0.775-0.335
			c0.282-0.071,0.553-0.106,0.813-0.106H196.874 M196.874,14.872h-0.176c-0.422,0-0.858,0.056-1.299,0.167
			c-0.495,0.124-0.961,0.325-1.382,0.6c-0.478,0.311-0.869,0.706-1.164,1.173c-0.344,0.543-0.52,1.17-0.52,1.86v2.203
			c-0.826,0.041-1.574,0.336-2.173,0.859c-0.735,0.644-1.107,1.583-1.107,2.794v0.141c0,0.371,0.023,0.734,0.071,1.081
			c0.067,0.514,0.231,0.999,0.487,1.433c0.303,0.517,0.755,0.945,1.306,1.234c0.412,0.217,0.879,0.346,1.416,0.389v7.93v0.034
			l0.001,0.035c0.024,0.694,0.054,1.381,0.09,2.063c0.039,0.72,0.097,1.381,0.172,1.967l0.01,0.075l0.015,0.074
			c0.376,1.82,1.048,3.288,1.997,4.361c1.11,1.255,2.688,1.892,4.689,1.892c1.423,0,2.657-0.265,3.669-0.787
			c0.832-0.43,1.554-0.888,2.146-1.362l0.004,0.004c0.434-0.356,0.796-0.771,1.077-1.232c0.357-0.594,0.537-1.231,0.537-1.903
			v-0.106c0-0.499-0.169-0.923-0.423-1.405c-0.166-0.315-0.37-0.649-0.605-0.988c-0.275-0.395-0.585-0.748-0.921-1.051
			c-0.608-0.541-1.264-0.813-1.955-0.813c-0.601,0-1.111,0.108-1.562,0.332c-0.312,0.158-0.611,0.375-0.938,0.676
			c-0.026-0.215-0.044-0.433-0.054-0.659c-0.022-0.548-0.033-1.042-0.033-1.488V28.82h1.633c1.244,0,2.032-0.501,2.474-0.922
			c0.67-0.64,1.009-1.56,1.009-2.735v-0.141c0-1.121-0.169-1.95-0.532-2.607c-0.387-0.703-1.251-1.545-3.161-1.545h-1.422v-2.303
			c0-0.94-0.195-1.702-0.598-2.331C199.322,15.722,198.527,14.872,196.874,14.872L196.874,14.872z"/>
	</g>
	<g>
		<linearGradient id="SVGID_9_" gradientUnits="userSpaceOnUse" x1="214.3345" y1="10.9287" x2="214.3345" y2="50.1581">
			<stop  offset="0" style="stop-color:#4A81C2"/>
			<stop  offset="1" style="stop-color:#242A64"/>
		</linearGradient>
		<path fill="url(#SVGID_9_)" d="M207.069,45.812c-0.544,0-1.082-0.245-1.6-0.729c-0.53-0.491-0.813-1.11-0.813-1.788
			c0-0.42,0.075-0.774,0.229-1.083c0.097-0.191,0.212-0.397,0.349-0.614l9.067-11.661h-6.493c-0.894,0-1.646-0.446-2.117-1.255
			c-0.383-0.658-0.576-1.332-0.576-2.003v-0.388c0.079-0.959,0.4-1.574,0.957-1.913c0.432-0.264,0.966-0.392,1.631-0.392h13.829
			c0.54,0,1.077,0.244,1.597,0.725c0.533,0.497,0.813,1.116,0.813,1.792c0,0.717-0.282,1.374-0.817,1.903l-8.837,11.454h6.962
			c0.884,0,1.631,0.427,2.104,1.201c0.374,0.615,0.594,1.264,0.654,1.93l0.004,0.409c0,1.206-0.521,1.761-0.957,2.013
			c-0.465,0.266-1,0.399-1.595,0.399H207.069z"/>
		<path fill="#FFFFFF" d="M221.533,24.986c0.281,0,0.587,0.153,0.917,0.458c0.328,0.306,0.493,0.659,0.493,1.058
			c0,0.471-0.188,0.882-0.564,1.234L212.254,40.86h8.996c0.541,0,0.958,0.242,1.252,0.723c0.293,0.482,0.464,0.983,0.511,1.499V43.4
			c0,0.589-0.152,0.971-0.458,1.147c-0.306,0.175-0.67,0.265-1.094,0.265h-14.393c-0.282,0-0.589-0.153-0.917-0.46
			c-0.33-0.306-0.495-0.657-0.495-1.058c0-0.259,0.041-0.47,0.124-0.636c0.082-0.163,0.182-0.341,0.3-0.528l10.266-13.194h-8.537
			c-0.541,0-0.958-0.252-1.253-0.758c-0.294-0.505-0.44-1.005-0.44-1.5v-0.388c0.047-0.541,0.206-0.894,0.477-1.059
			c0.27-0.165,0.641-0.247,1.111-0.247H221.533 M221.533,22.986h-13.829c-0.843,0-1.567,0.182-2.153,0.54
			c-0.578,0.351-1.297,1.088-1.427,2.593l-0.008,0.086v0.086v0.388c0,0.851,0.239,1.693,0.712,2.505
			c0.648,1.114,1.735,1.753,2.981,1.753h4.447l-7.754,9.965l-0.062,0.078l-0.053,0.084c-0.146,0.231-0.278,0.466-0.395,0.696
			c-0.225,0.449-0.337,0.964-0.337,1.534c0,0.964,0.393,1.837,1.136,2.525c0.703,0.656,1.471,0.992,2.276,0.992h14.393
			c0.771,0,1.474-0.178,2.087-0.528c0.552-0.319,1.465-1.112,1.465-2.884v-0.318v-0.091l-0.008-0.09
			c-0.075-0.82-0.342-1.612-0.794-2.356c-0.665-1.088-1.716-1.685-2.961-1.685h-4.927l7.555-9.793
			c0.697-0.712,1.064-1.595,1.064-2.564c0-0.961-0.391-1.833-1.13-2.521C223.098,23.319,222.333,22.986,221.533,22.986
			L221.533,22.986z"/>
	</g>
	<g>
		<linearGradient id="SVGID_10_" gradientUnits="userSpaceOnUse" x1="232.0083" y1="11.0347" x2="232.0083" y2="50.0995">
			<stop  offset="0" style="stop-color:#4A81C2"/>
			<stop  offset="1" style="stop-color:#242A64"/>
		</linearGradient>
		<path fill="url(#SVGID_10_)" d="M232.678,46.235c-0.951,0-1.875-0.118-2.746-0.352c-0.911-0.245-1.744-0.651-2.479-1.209
			c-0.736-0.56-1.368-1.279-1.879-2.141c-0.506-0.853-0.868-1.892-1.077-3.088c-0.092-0.36-0.172-0.87-0.222-1.444
			c-0.05-0.55-0.075-1.108-0.075-1.657c0-1.544,0.221-3.091,0.656-4.599c0.439-1.515,1.063-2.889,1.857-4.085
			c0.808-1.219,1.781-2.224,2.894-2.988c1.178-0.807,2.496-1.216,3.919-1.216c1.75,0,3.226,0.524,4.387,1.559
			c1.193,1.064,1.798,2.561,1.798,4.45c0,1.424-0.392,2.714-1.165,3.832c-0.725,1.049-1.636,1.955-2.709,2.69
			c-1.034,0.711-2.146,1.29-3.304,1.719c-0.806,0.297-1.539,0.513-2.22,0.651c0.088,0.417,0.216,0.755,0.376,0.998
			c0.155,0.231,0.334,0.412,0.528,0.535c0.224,0.14,0.458,0.239,0.697,0.294c0.279,0.065,0.571,0.098,0.87,0.098
			c0.517,0,0.936-0.073,1.211-0.211c0.248-0.124,0.493-0.263,0.733-0.415l0.208-0.17c0.333-0.272,0.62-0.459,0.878-0.568
			c0.282-0.123,0.595-0.187,0.921-0.187h0.176c0.353,0,0.696,0.138,1.084,0.435c0.252,0.192,0.498,0.424,0.754,0.708
			c0.25,0.278,0.47,0.569,0.653,0.866c0.23,0.37,0.364,0.716,0.406,1.055l0.008,0.062v0.167c0,0.409-0.114,0.818-0.341,1.218
			c-0.188,0.327-0.421,0.629-0.693,0.901l-0.047,0.048l-0.054,0.04c-0.983,0.75-1.96,1.279-2.902,1.571
			C234.854,46.089,233.81,46.235,232.678,46.235z M233.455,29.478c-0.229,0-0.451,0.081-0.678,0.247
			c-0.309,0.228-0.602,0.536-0.868,0.916c-0.273,0.392-0.52,0.845-0.73,1.347c0.032-0.014,0.063-0.028,0.094-0.042
			c0.533-0.246,0.991-0.522,1.359-0.821c0.346-0.281,0.615-0.576,0.802-0.877c0.121-0.196,0.201-0.377,0.237-0.534
			c-0.032-0.102-0.063-0.176-0.089-0.229C233.55,29.48,233.508,29.478,233.455,29.478z"/>
		<path fill="#FFFFFF" d="M233.526,24.457c1.504,0,2.745,0.436,3.722,1.305c0.976,0.87,1.463,2.105,1.463,3.704
			c0,1.224-0.329,2.311-0.987,3.264s-1.476,1.764-2.452,2.434c-0.976,0.671-2.004,1.205-3.086,1.606
			c-1.082,0.398-2.046,0.646-2.894,0.739c0,0.19,0,0.378,0,0.564c0,0.189,0.013,0.343,0.036,0.46
			c0.117,0.564,0.294,1.022,0.528,1.376c0.235,0.352,0.513,0.63,0.83,0.829s0.652,0.341,1.005,0.422
			c0.353,0.082,0.718,0.123,1.094,0.123c0.682,0,1.234-0.104,1.658-0.316s0.834-0.458,1.234-0.741l-0.106,0.035
			c0.259-0.212,0.471-0.352,0.636-0.422c0.164-0.071,0.341-0.106,0.529-0.106h0.176c0.117,0,0.277,0.076,0.477,0.229
			c0.2,0.153,0.405,0.347,0.618,0.583c0.211,0.234,0.393,0.475,0.546,0.723c0.153,0.246,0.241,0.464,0.265,0.652v0.105
			c0,0.236-0.07,0.477-0.211,0.725c-0.142,0.246-0.317,0.475-0.53,0.688c-0.894,0.682-1.758,1.152-2.592,1.411
			c-0.835,0.259-1.771,0.388-2.806,0.388c-0.869,0-1.699-0.106-2.487-0.317c-0.787-0.212-1.499-0.559-2.134-1.04
			c-0.635-0.482-1.176-1.1-1.623-1.854c-0.446-0.752-0.764-1.668-0.952-2.75c-0.094-0.376-0.165-0.831-0.211-1.359
			c-0.048-0.529-0.071-1.052-0.071-1.57c0-1.458,0.206-2.898,0.617-4.321c0.412-1.423,0.988-2.693,1.729-3.81
			c0.74-1.117,1.616-2.022,2.627-2.716C231.185,24.804,232.302,24.457,233.526,24.457 M229.61,33.487
			c0.776-0.141,1.469-0.353,2.081-0.635c0.611-0.282,1.135-0.6,1.57-0.953c0.435-0.353,0.775-0.729,1.022-1.129
			c0.247-0.399,0.383-0.776,0.405-1.129c-0.094-0.376-0.218-0.664-0.37-0.864c-0.152-0.2-0.44-0.3-0.864-0.3
			c-0.446,0-0.87,0.147-1.27,0.441c-0.4,0.294-0.765,0.677-1.095,1.146c-0.329,0.471-0.617,1.005-0.863,1.605
			C229.98,32.271,229.774,32.876,229.61,33.487 M233.526,22.457c-1.628,0-3.137,0.468-4.483,1.391
			c-1.22,0.838-2.284,1.935-3.163,3.261c-0.849,1.28-1.517,2.747-1.983,4.358c-0.462,1.599-0.696,3.24-0.696,4.878
			c0,0.579,0.026,1.167,0.079,1.75c0.052,0.59,0.134,1.127,0.245,1.591c0.231,1.288,0.632,2.418,1.19,3.359
			c0.482,0.814,1.064,1.519,1.733,2.101l-0.479,0.394l0.68-0.225c0.065,0.053,0.132,0.104,0.199,0.156
			c0.84,0.637,1.789,1.1,2.824,1.379c0.958,0.256,1.969,0.386,3.007,0.386c1.232,0,2.376-0.16,3.397-0.478
			c1.056-0.327,2.136-0.909,3.213-1.731l0.106-0.081l0.095-0.095c0.335-0.335,0.621-0.706,0.85-1.104
			c0.319-0.563,0.478-1.138,0.478-1.722v-0.105v-0.124l-0.016-0.123c-0.06-0.485-0.24-0.964-0.552-1.463
			c-0.211-0.341-0.467-0.681-0.757-1.003c-0.298-0.331-0.588-0.603-0.889-0.833c-0.563-0.432-1.117-0.641-1.692-0.641h-0.176
			c-0.465,0-0.911,0.092-1.326,0.272c-0.338,0.144-0.693,0.37-1.106,0.708l-0.161,0.133c-0.193,0.12-0.391,0.23-0.594,0.332
			c-0.035,0.018-0.237,0.105-0.764,0.105c-0.223,0-0.438-0.023-0.641-0.071c-0.137-0.031-0.265-0.086-0.395-0.168
			c-0.007-0.004-0.014-0.009-0.021-0.014c0.369-0.109,0.751-0.237,1.148-0.384c1.238-0.459,2.424-1.076,3.527-1.835
			c1.172-0.804,2.17-1.795,2.965-2.945c0.891-1.289,1.342-2.769,1.342-4.4c0-2.187-0.717-3.935-2.132-5.196
			C237.228,23.066,235.528,22.457,233.526,22.457L233.526,22.457z"/>
	</g>
	<g>
		<linearGradient id="SVGID_11_" gradientUnits="userSpaceOnUse" x1="247.3188" y1="12.2222" x2="247.3188" y2="49.9595">
			<stop  offset="0" style="stop-color:#4A81C2"/>
			<stop  offset="1" style="stop-color:#242A64"/>
		</linearGradient>
		<path fill="url(#SVGID_11_)" d="M247.178,46.376c-1.639,0-2.949-0.391-3.895-1.16s-1.603-2.024-1.954-3.731l-0.303-2.687v-25.63
			c0-0.651,0.179-1.24,0.53-1.75c0.296-0.43,0.869-0.943,1.917-0.943h0.423c0.325,0,0.663,0.047,1.005,0.141
			c0.371,0.101,0.716,0.265,1.025,0.487c0.316,0.23,0.58,0.511,0.789,0.84c0.245,0.387,0.368,0.834,0.368,1.331l0.035,25.87
			c0.02,0.104,0.034,0.2,0.045,0.288c0.007,0.055,0.017,0.106,0.03,0.16c0.092,0.452,0.201,0.656,0.336,0.656
			c-0.012,0,0.129-0.019,0.497-0.198c0.409-0.199,0.612-0.345,0.71-0.432c0.295-0.298,0.579-0.521,0.849-0.656
			c0.31-0.154,0.676-0.229,1.12-0.229c0.438,0,0.868,0.186,1.28,0.552c0.281,0.252,0.54,0.547,0.773,0.881
			c0.214,0.308,0.394,0.602,0.541,0.881c0.196,0.378,0.31,0.651,0.31,0.943v0.106c0,0.489-0.132,0.955-0.393,1.383
			c-0.221,0.364-0.51,0.694-0.856,0.979l-0.003-0.003c-0.545,0.434-1.208,0.854-1.972,1.247
			C249.519,46.149,248.439,46.376,247.178,46.376z"/>
		<path fill="#FFFFFF" d="M243.897,11.475c0.234,0,0.482,0.035,0.741,0.105s0.493,0.183,0.706,0.335
			c0.211,0.153,0.387,0.341,0.528,0.564c0.142,0.224,0.212,0.489,0.212,0.794l0.035,25.965c0.023,0.117,0.041,0.223,0.053,0.316
			c0.012,0.095,0.029,0.188,0.054,0.283c0.188,0.939,0.622,1.409,1.305,1.409c0.212,0,0.523-0.099,0.936-0.3
			c0.41-0.199,0.722-0.393,0.935-0.581c0.258-0.259,0.47-0.429,0.635-0.512c0.164-0.082,0.389-0.123,0.671-0.123
			c0.187,0,0.393,0.101,0.617,0.3c0.222,0.199,0.428,0.436,0.617,0.706c0.188,0.27,0.346,0.528,0.476,0.774
			c0.129,0.247,0.194,0.406,0.194,0.477v0.106c0,0.305-0.083,0.594-0.247,0.863c-0.165,0.272-0.377,0.513-0.636,0.725l0.036-0.035
			c-0.494,0.398-1.105,0.788-1.835,1.164c-0.729,0.376-1.646,0.564-2.751,0.564c-1.411,0-2.499-0.313-3.264-0.936
			c-0.765-0.623-1.3-1.676-1.605-3.158l-0.282-2.54V13.168c0-0.447,0.118-0.841,0.354-1.182c0.234-0.34,0.6-0.511,1.094-0.511
			H243.897 M243.897,9.475h-0.423c-1.156,0-2.13,0.489-2.741,1.377c-0.468,0.679-0.706,1.459-0.706,2.316v25.575v0.11l0.013,0.11
			l0.282,2.54l0.01,0.093l0.019,0.091c0.399,1.938,1.174,3.386,2.301,4.305c1.131,0.919,2.653,1.385,4.527,1.385
			c1.422,0,2.656-0.265,3.668-0.787c0.826-0.426,1.548-0.884,2.146-1.362l0.004,0.004c0.435-0.357,0.798-0.772,1.079-1.236
			c0.354-0.583,0.536-1.224,0.536-1.899v-0.106c0-0.493-0.168-0.917-0.421-1.401c-0.174-0.33-0.377-0.661-0.607-0.992
			c-0.28-0.4-0.59-0.752-0.922-1.051c-0.611-0.542-1.265-0.813-1.954-0.813c-0.604,0-1.115,0.109-1.565,0.334
			c-0.332,0.167-0.659,0.409-1.022,0.757l-0.034-25.552c0-0.686-0.176-1.312-0.521-1.859c-0.279-0.44-0.629-0.813-1.043-1.113
			c-0.416-0.299-0.868-0.514-1.354-0.647C244.738,9.534,244.311,9.475,243.897,9.475L243.897,9.475z"/>
	</g>
</g>
<g>
	<path fill="none" d="M31.234,35.679c-0.901,1.624-1.948,3.155-3.123,4.576c-0.392,0.474-0.798,0.936-1.217,1.384
		c0.351,0.076,0.705,0.144,1.061,0.202c1.07,0.176,2.164,0.272,3.279,0.272c0.008,0,0.015-0.001,0.022-0.001
		c1.479-0.002,2.921-0.173,4.318-0.474c-1.668-1.784-3.122-3.771-4.318-5.921v0C31.25,35.704,31.241,35.692,31.234,35.679z"/>
	<path fill="none" d="M25.541,25.916c-0.938-1.094-1.571-2.458-1.751-3.963c-0.036-0.295-0.054-0.596-0.054-0.901
		c0-2.35,1.082-4.445,2.774-5.819c-0.196-0.339-0.407-0.662-0.63-0.966c-1.115-1.523-2.545-2.605-4.102-3.1
		c-0.623-0.197-1.265-0.301-1.916-0.301c-1.808,0-3.559,0.776-5.005,2.203c-0.207,0.204-0.408,0.42-0.601,0.651
		c-1.745,2.072-2.706,4.875-2.706,7.896c0,0.106,0.001,0.211,0.004,0.316l0,0.034c0.08,5.727,2.167,10.91,5.875,14.594
		c0.654,0.649,1.363,1.226,2.098,1.767c3.431-2.914,5.979-6.834,7.184-11.303C26.281,26.698,25.891,26.324,25.541,25.916z"/>
	<path fill="none" d="M42.608,10.866c-2.604,0-5.077,1.656-6.648,4.367c1.692,1.375,2.774,3.47,2.774,5.82
		c0,2.44-1.171,4.602-2.975,5.971c1.204,4.469,3.752,8.39,7.184,11.304c0.734-0.541,1.443-1.118,2.097-1.767
		c3.709-3.685,5.796-8.868,5.875-14.594l0-0.037c0.002-0.104,0.004-0.208,0.004-0.313c0-3.02-0.961-5.823-2.706-7.896
		C46.665,11.879,44.674,10.866,42.608,10.866z"/>
	<path fill="#F8981E" d="M19.861,10.866L19.861,10.866c0.651,0,1.293,0.104,1.916,0.301C21.154,10.97,20.512,10.866,19.861,10.866z"
		/>
	<path fill="#F8981E" d="M31.234,42.113c-1.115,0-2.209-0.097-3.279-0.272C29.025,42.016,30.119,42.113,31.234,42.113z"/>
	<path fill="#F8981E" d="M23.789,21.953c0.181,1.505,0.813,2.869,1.751,3.963C24.603,24.822,23.97,23.458,23.789,21.953z"/>
	<path fill="#F8981E" d="M57.481,43.675c-1.935,0-3.813-0.246-5.605-0.707c5.308-5.399,8.296-12.787,8.412-20.855
		c0.004-0.166,0.006-0.332,0.006-0.499c0-5.226-1.744-10.174-4.909-13.934c-3.361-3.991-7.898-6.189-12.777-6.189
		c-4.17,0-8.104,1.657-11.209,4.548c-0.047,0.129-0.097,0.251-0.142,0.384v29.292c1.196,2.151,2.65,4.137,4.318,5.921
		c-1.397,0.301-2.839,0.472-4.318,0.474v9.374c-0.008,0-0.015,0.001-0.022,0.001c4.779,0,9.354-1.111,13.418-3.201
		c3.892,1.85,8.241,2.889,12.829,2.889c2.071,0,3.75-1.679,3.75-3.75C61.231,45.354,59.553,43.675,57.481,43.675z M50.916,21.928
		l0,0.037c-0.08,5.727-2.167,10.91-5.875,14.594c-0.654,0.649-1.363,1.226-2.097,1.767c-3.432-2.914-5.98-6.834-7.184-11.304
		c1.804-1.369,2.975-3.531,2.975-5.971c0-2.35-1.082-4.445-2.774-5.82c1.571-2.71,4.043-4.367,6.648-4.367
		c2.066,0,4.057,1.013,5.606,2.854c1.745,2.072,2.706,4.875,2.706,7.896C50.92,21.72,50.918,21.824,50.916,21.928z"/>
	<path fill="#BE7429" d="M31.257,42.112c-0.008,0-0.015,0.001-0.022,0.001c-1.115,0-2.209-0.097-3.279-0.272
		c-0.356-0.059-0.71-0.126-1.061-0.202c0.419-0.448,0.825-0.91,1.217-1.384c1.175-1.421,2.222-2.952,3.123-4.576
		c0.007,0.013,0.016,0.025,0.022,0.039v0V6.425c0.045-0.133,0.095-0.255,0.142-0.384c-0.054,0.05-0.111,0.093-0.165,0.144
		c-3.128-2.985-7.13-4.692-11.374-4.692l0,0c-2.744,0-5.38,0.695-7.76,2.014c-0.264,0.146-0.526,0.301-0.784,0.462
		c-0.516,0.324-1.018,0.678-1.505,1.062C8.838,5.798,7.924,6.683,7.084,7.681c-3.166,3.759-4.91,8.708-4.91,13.934
		c0,0.167,0.002,0.333,0.006,0.498c0.116,8.069,3.104,15.456,8.412,20.855c-1.792,0.461-3.67,0.707-5.605,0.707
		c-2.071,0-3.75,1.679-3.75,3.749c0,2.071,1.678,3.75,3.75,3.75c4.588,0,8.937-1.039,12.829-2.889
		c4.064,2.09,8.639,3.201,13.418,3.201c0.008,0,0.015-0.001,0.022-0.001V42.112z M19.526,38.327
		c-0.734-0.541-1.444-1.118-2.098-1.767c-3.709-3.685-5.796-8.868-5.875-14.594l0-0.034c-0.002-0.105-0.004-0.21-0.004-0.316
		c0-3.02,0.961-5.823,2.706-7.896c0.193-0.23,0.394-0.447,0.601-0.651c1.447-1.427,3.197-2.203,5.005-2.203l0,0
		c0.651,0,1.293,0.104,1.916,0.301c1.557,0.494,2.986,1.577,4.102,3.1c0.224,0.305,0.434,0.627,0.63,0.966
		c-1.692,1.375-2.774,3.47-2.774,5.819c0,0.305,0.019,0.606,0.054,0.901c0.181,1.505,0.813,2.869,1.751,3.963
		c0.35,0.408,0.74,0.782,1.169,1.107C25.506,31.492,22.957,35.413,19.526,38.327z"/>
</g>
<g>
	<g>
		<path fill="#F8981E" d="M19.861,10.866L19.861,10.866c0.651,0,1.293,0.104,1.916,0.301C21.154,10.97,20.512,10.866,19.861,10.866z
			"/>
		<path fill="#F8981E" d="M31.234,42.113c-1.115,0-2.209-0.097-3.279-0.272C29.025,42.016,30.119,42.113,31.234,42.113z"/>
		<path fill="#F8981E" d="M23.789,21.953c0.181,1.505,0.813,2.869,1.751,3.963C24.603,24.822,23.97,23.458,23.789,21.953z"/>
		<path fill="#F8981E" d="M57.481,43.675c-1.935,0-3.813-0.246-5.605-0.707c5.308-5.399,8.296-12.787,8.412-20.855
			c0.004-0.166,0.006-0.332,0.006-0.499c0-5.226-1.744-10.174-4.909-13.934c-3.361-3.991-7.898-6.189-12.777-6.189
			c-4.17,0-8.104,1.657-11.209,4.548c-0.047,0.129-0.097,0.251-0.142,0.384v29.292c1.196,2.15,2.65,4.137,4.318,5.921
			c-1.397,0.301-2.839,0.472-4.318,0.474v9.374c-0.008,0-0.015,0.001-0.022,0.001c4.779,0,9.354-1.111,13.418-3.201
			c3.892,1.85,8.241,2.889,12.829,2.889c2.071,0,3.75-1.679,3.75-3.75C61.231,45.354,59.553,43.675,57.481,43.675z M50.916,21.928
			l0,0.037c-0.08,5.727-2.167,10.91-5.875,14.594c-0.654,0.649-1.363,1.226-2.097,1.767c-3.432-2.914-5.98-6.834-7.184-11.304
			c1.804-1.369,2.975-3.531,2.975-5.971c0-2.35-1.082-4.445-2.774-5.82c1.571-2.71,4.043-4.367,6.648-4.367
			c2.066,0,4.057,1.013,5.606,2.854c1.745,2.072,2.706,4.875,2.706,7.896C50.92,21.72,50.918,21.824,50.916,21.928z"/>
		<path fill="#BE7429" d="M31.257,42.112c-0.008,0-0.015,0.001-0.022,0.001c-1.115,0-2.209-0.097-3.279-0.272
			c-0.356-0.059-0.71-0.126-1.061-0.202c0.419-0.448,0.825-0.91,1.217-1.384c1.175-1.421,2.222-2.952,3.123-4.576
			c0.007,0.013,0.016,0.025,0.022,0.039l0,0V6.425c0.045-0.133,0.095-0.255,0.142-0.384c-0.054,0.05-0.111,0.093-0.165,0.144
			c-3.128-2.985-7.13-4.692-11.374-4.692l0,0c-2.744,0-5.38,0.695-7.76,2.014c-0.264,0.146-0.526,0.301-0.784,0.462
			c-0.516,0.324-1.018,0.678-1.505,1.062C8.838,5.798,7.924,6.683,7.084,7.681c-3.166,3.759-4.91,8.708-4.91,13.934
			c0,0.167,0.002,0.333,0.006,0.498c0.116,8.069,3.104,15.456,8.412,20.855c-1.792,0.461-3.67,0.707-5.605,0.707
			c-2.071,0-3.75,1.679-3.75,3.749c0,2.071,1.678,3.75,3.75,3.75c4.588,0,8.937-1.039,12.829-2.889
			c4.064,2.09,8.639,3.201,13.418,3.201c0.008,0,0.015-0.001,0.022-0.001V42.112z M19.526,38.327
			c-0.734-0.541-1.444-1.118-2.098-1.767c-3.709-3.685-5.796-8.868-5.875-14.594l0-0.034c-0.002-0.105-0.004-0.21-0.004-0.316
			c0-3.02,0.961-5.823,2.706-7.896c0.193-0.23,0.394-0.447,0.601-0.651c1.447-1.427,3.197-2.203,5.005-2.203l0,0
			c0.651,0,1.293,0.104,1.916,0.301c1.557,0.494,2.986,1.577,4.102,3.1c0.224,0.305,0.434,0.627,0.63,0.966
			c-1.692,1.375-2.774,3.47-2.774,5.819c0,0.305,0.019,0.606,0.054,0.901c0.181,1.505,0.813,2.869,1.751,3.963
			c0.35,0.408,0.74,0.782,1.169,1.107C25.506,31.492,22.957,35.413,19.526,38.327z"/>
	</g>
</g>
<g>
	<path fill="none" d="M28.111,40.379c-0.392,0.473-0.798,0.935-1.217,1.383c0.351,0.077,0.705,0.144,1.061,0.202
		c1.07,0.177,2.164,0.272,3.279,0.272c0.008,0,0.015,0,0.022,0c1.479-0.002,2.921-0.173,4.318-0.475
		c-1.668-1.784-3.122-3.771-4.318-5.92c-0.007-0.014-0.016-0.026-0.022-0.038C30.333,37.427,29.287,38.958,28.111,40.379z"/>
	<path fill="none" d="M25.541,26.04c-0.938-1.094-1.571-2.458-1.751-3.963c-0.036-0.295-0.054-0.596-0.054-0.901
		c0-2.35,1.082-4.445,2.774-5.82c-0.196-0.338-0.407-0.661-0.63-0.966c-1.115-1.523-2.545-2.606-4.102-3.1
		c-0.623-0.198-1.265-0.301-1.916-0.301c-1.808,0-3.559,0.775-5.005,2.202c-0.207,0.204-0.408,0.421-0.601,0.651
		c-1.745,2.072-2.706,4.876-2.706,7.896c0,0.106,0.001,0.211,0.004,0.316l0,0.035c0.08,5.727,2.167,10.909,5.875,14.595
		c0.654,0.648,1.363,1.227,2.098,1.767c3.431-2.914,5.979-6.835,7.184-11.304C26.281,26.821,25.891,26.448,25.541,26.04z"/>
	<path fill="none" d="M42.608,10.99c-2.604,0-5.077,1.656-6.648,4.366c1.692,1.375,2.774,3.471,2.774,5.82
		c0,2.439-1.171,4.601-2.975,5.971c1.204,4.469,3.752,8.39,7.184,11.304c0.734-0.54,1.443-1.118,2.097-1.767
		c3.709-3.686,5.796-8.868,5.875-14.595l0-0.037c0.002-0.105,0.004-0.208,0.004-0.313c0-3.02-0.961-5.824-2.706-7.896
		C46.665,12.003,44.674,10.99,42.608,10.99z"/>
	<path fill="#F8981E" d="M19.861,10.99L19.861,10.99c0.651,0,1.293,0.104,1.916,0.301C21.154,11.093,20.512,10.99,19.861,10.99z"/>
	<path fill="#F8981E" d="M31.234,42.237c-1.115,0-2.209-0.096-3.279-0.272C29.025,42.141,30.119,42.237,31.234,42.237z"/>
	<path fill="#F8981E" d="M23.789,22.077c0.181,1.505,0.813,2.869,1.751,3.963C24.603,24.946,23.97,23.583,23.789,22.077z"/>
	<path fill="#F8981E" d="M57.481,43.799c-1.935,0-3.813-0.246-5.605-0.706c5.308-5.399,8.296-12.788,8.412-20.856
		c0.004-0.166,0.006-0.332,0.006-0.498c0-5.226-1.744-10.174-4.909-13.934c-3.361-3.991-7.898-6.189-12.777-6.189
		c-4.17,0-8.104,1.657-11.209,4.548c-0.047,0.129-0.097,0.25-0.142,0.384v29.293c1.196,2.15,2.65,4.136,4.318,5.92
		c-1.397,0.302-2.839,0.473-4.318,0.475v9.373c-0.008,0-0.015,0.002-0.022,0.002c4.779,0,9.354-1.113,13.418-3.202
		c3.892,1.851,8.241,2.888,12.829,2.888c2.071,0,3.75-1.678,3.75-3.749C61.231,45.478,59.553,43.799,57.481,43.799z M50.916,22.052
		l0,0.037c-0.08,5.727-2.167,10.909-5.875,14.595c-0.654,0.648-1.363,1.227-2.097,1.767c-3.432-2.914-5.98-6.835-7.184-11.304
		c1.804-1.37,2.975-3.531,2.975-5.971c0-2.35-1.082-4.445-2.774-5.82c1.571-2.71,4.043-4.366,6.648-4.366
		c2.066,0,4.057,1.013,5.606,2.853c1.745,2.072,2.706,4.876,2.706,7.896C50.92,21.844,50.918,21.947,50.916,22.052z"/>
	<path fill="#BE7429" d="M31.257,42.237c-0.008,0-0.015,0-0.022,0c-1.115,0-2.209-0.096-3.279-0.272
		c-0.356-0.059-0.71-0.125-1.061-0.202c0.419-0.448,0.825-0.91,1.217-1.383c1.175-1.421,2.222-2.952,3.123-4.576
		c0.007,0.012,0.016,0.024,0.022,0.038V6.548c0.045-0.133,0.095-0.255,0.142-0.384c-0.054,0.05-0.111,0.093-0.165,0.144
		c-3.128-2.984-7.13-4.692-11.374-4.692l0,0c-2.744,0-5.38,0.695-7.76,2.014c-0.264,0.146-0.526,0.301-0.784,0.462
		c-0.516,0.323-1.018,0.678-1.505,1.062C8.838,5.921,7.924,6.807,7.084,7.805c-3.166,3.759-4.91,8.708-4.91,13.934
		c0,0.167,0.002,0.332,0.006,0.498c0.116,8.069,3.104,15.458,8.412,20.857c-1.792,0.46-3.67,0.706-5.605,0.706
		c-2.071,0-3.75,1.679-3.75,3.749c0,2.071,1.678,3.749,3.75,3.749c4.588,0,8.937-1.037,12.829-2.888
		c4.064,2.089,8.639,3.202,13.418,3.202c0.008,0,0.015-0.002,0.022-0.002V42.237z M19.526,38.451
		c-0.734-0.54-1.444-1.118-2.098-1.767c-3.709-3.686-5.796-8.868-5.875-14.595l0-0.035c-0.002-0.104-0.004-0.21-0.004-0.316
		c0-3.02,0.961-5.824,2.706-7.896c0.193-0.23,0.394-0.447,0.601-0.651c1.447-1.427,3.197-2.202,5.005-2.202l0,0
		c0.651,0,1.293,0.104,1.916,0.301c1.557,0.494,2.986,1.576,4.102,3.1c0.224,0.305,0.434,0.627,0.63,0.966
		c-1.692,1.375-2.774,3.47-2.774,5.82c0,0.305,0.019,0.605,0.054,0.901c0.181,1.505,0.813,2.869,1.751,3.963
		c0.35,0.408,0.74,0.781,1.169,1.107C25.506,31.616,22.957,35.537,19.526,38.451z"/>
</g>
<g id="XMLID_1365_">
	<g id="XMLID_1379_">
		<path id="XMLID_1380_" fill="#BE7429" d="M31.33,49.135L31.33,49.135c-1.035-0.002-1.875-0.842-1.873-1.876l0,0
			c0-1.038,0.84-1.875,1.876-1.873l0,0c1.035,0,1.873,0.84,1.873,1.876l0,0c-0.001,1.036-0.839,1.873-1.875,1.873l0,0H31.33z"/>
		<path id="XMLID_1381_" fill="#BE7429" d="M31.333,45.386L31.333,45.386L31.333,45.386z"/>
		<g id="XMLID_1382_">
			<path id="XMLID_1383_" fill="#BE7429" d="M49.159,39.735c-0.812-0.644-0.947-1.822-0.304-2.633l0,0c0,0,0,0,0,0.001l0,0
				c0.643-0.812,1.822-0.949,2.634-0.304l0,0c0.81,0.643,0.947,1.821,0.302,2.633l0,0c-0.369,0.466-0.917,0.71-1.469,0.71l0,0
				C49.914,40.142,49.501,40.008,49.159,39.735z"/>
		</g>
		<path id="XMLID_1384_" fill="#BE7429" d="M54.56,30.366c-1.008-0.239-1.633-1.249-1.395-2.255l0,0
			c0.238-1.009,1.249-1.633,2.255-1.395l0,0c1.009,0.239,1.633,1.249,1.396,2.256l0,0c-0.205,0.862-0.973,1.445-1.825,1.445l0,0
			C54.849,30.417,54.704,30.4,54.56,30.366z"/>
		<path id="XMLID_1385_" fill="#BE7429" d="M53.394,18.209L53.394,18.209L53.394,18.209c-0.246-1.007,0.369-2.022,1.375-2.267l0,0
			c1.005-0.246,2.021,0.369,2.267,1.377l0,0c0.246,1.004-0.371,2.019-1.376,2.265l0,0c-0.15,0.037-0.3,0.053-0.446,0.053l0,0
			C54.37,19.637,53.604,19.063,53.394,18.209z"/>
		<path id="XMLID_1386_" fill="#BE7429" d="M48.323,10.357L48.323,10.357L48.323,10.357c-0.844-0.6-1.041-1.771-0.439-2.616l0,0
			c0.602-0.841,1.771-1.039,2.615-0.437l0,0c0.844,0.6,1.039,1.772,0.438,2.613l0,0c-0.365,0.515-0.943,0.788-1.527,0.788l0,0
			C49.033,10.706,48.652,10.593,48.323,10.357z"/>
		<path id="XMLID_1387_" fill="#BE7429" d="M37.301,7.877c-0.34-0.979,0.176-2.047,1.154-2.387V5.489
			c0.977-0.34,2.045,0.178,2.387,1.156l0,0c0.339,0.977-0.178,2.045-1.155,2.385l0,0l0,0l0,0c-0.204,0.071-0.412,0.105-0.617,0.105
			l0,0C38.294,9.135,37.569,8.649,37.301,7.877z"/>
		<g>
			<path id="XMLID_1388_" fill="#804E20" d="M31.331,49.135L31.331,49.135H31.33l0,0c-1.035-0.002-1.875-0.842-1.873-1.876l0,0
				c0-1.038,0.84-1.875,1.876-1.873l0,0"/>
			<g>
				<path id="XMLID_1389_" fill="#804E20" d="M10.889,39.39c-0.643-0.813-0.504-1.993,0.309-2.635l0,0
					c0.812-0.64,1.991-0.503,2.632,0.31l0,0c0.641,0.813,0.504,1.992-0.309,2.632l0,0c-0.344,0.272-0.754,0.404-1.161,0.404l0,0
					C11.807,40.101,11.258,39.856,10.889,39.39z"/>
				<path id="XMLID_1390_" fill="#804E20" d="M5.886,28.917c-0.236-1.008,0.39-2.018,1.397-2.253l0,0
					c1.009-0.236,2.017,0.391,2.253,1.398l0,0c0.236,1.006-0.39,2.016-1.398,2.251l0,0c-0.145,0.035-0.287,0.051-0.429,0.051l0,0
					C6.857,30.365,6.089,29.781,5.886,28.917z"/>
				<path id="XMLID_1391_" fill="#804E20" d="M7.06,19.53c-1.005-0.25-1.618-1.265-1.369-2.271l0,0
					c0.25-1.004,1.266-1.618,2.271-1.368l0,0c1.005,0.249,1.618,1.265,1.369,2.271l0,0c-0.212,0.855-0.977,1.425-1.819,1.425l0,0
					C7.364,19.587,7.212,19.568,7.06,19.53z"/>
				<path id="XMLID_1392_" fill="#804E20" d="M11.814,9.881c-0.596-0.846-0.396-2.016,0.45-2.612l0,0
					c0.846-0.598,2.015-0.397,2.613,0.448l0,0c0.598,0.848,0.396,2.016-0.45,2.613l0,0c-0.328,0.233-0.707,0.345-1.08,0.345l0,0
					C12.759,10.674,12.18,10.398,11.814,9.881z"/>
				<path id="XMLID_1393_" fill="#804E20" d="M23.069,9.044L23.069,9.044L23.069,9.044c-0.977-0.343-1.488-1.415-1.144-2.392l0,0
					c0.345-0.976,1.416-1.488,2.392-1.143l0,0c0.977,0.344,1.489,1.416,1.144,2.391l0,0c-0.271,0.77-0.995,1.252-1.768,1.252l0,0
					C23.485,9.153,23.275,9.118,23.069,9.044z"/>
			</g>
		</g>
	</g>
</g>
</svg>
