<?xml version="1.0" encoding="utf-8"?>
<!-- Generator: Adobe Illustrator 16.0.0, SVG Export Plug-In . SVG Version: 6.00 Build 0)  -->
<!DOCTYPE svg PUBLIC "-//W3C//DTD SVG 1.1//EN" "http://www.w3.org/Graphics/SVG/1.1/DTD/svg11.dtd">
<svg version="1.1" id="Layer_1" xmlns="http://www.w3.org/2000/svg" xmlns:xlink="http://www.w3.org/1999/xlink" x="0px" y="0px"
	 width="46.887px" height="45.346px" viewBox="0 0 46.887 45.346" enable-background="new 0 0 46.887 45.346" xml:space="preserve">
<path fill="none" stroke="#EDB828" stroke-width="2.5" stroke-miterlimit="10" d="M21.988,17.198c0,2.143-1.737,3.878-3.878,3.878
	H5.341c-2.142,0-3.878-1.736-3.878-3.878V5.317c0-2.143,1.737-3.878,3.878-3.878H18.11c2.142,0,3.878,1.736,3.878,3.878V17.198z"/>
<path fill="none" stroke="#EDB828" stroke-width="2.5" stroke-miterlimit="10" d="M45.386,17.198c0,2.143-1.738,3.878-3.878,3.878
	H28.74c-2.142,0-3.879-1.736-3.879-3.878V5.317c0-2.143,1.737-3.878,3.879-3.878h12.769c2.14,0,3.878,1.736,3.878,3.878
	L45.386,17.198L45.386,17.198z"/>
<path fill="none" stroke="#EDB828" stroke-width="2.5" stroke-miterlimit="10" d="M21.988,39.863c0,2.141-1.737,3.877-3.878,3.877
	H5.341c-2.142,0-3.878-1.736-3.878-3.877V27.982c0-2.143,1.737-3.879,3.878-3.879H18.11c2.142,0,3.878,1.736,3.878,3.879V39.863z"/>
<path fill="none" stroke="#EDB828" stroke-width="2.5" stroke-miterlimit="10" d="M45.386,39.863c0,2.141-1.738,3.877-3.878,3.877
	H28.74c-2.142,0-3.879-1.736-3.879-3.877V27.982c0-2.143,1.737-3.879,3.879-3.879h12.769c2.14,0,3.878,1.736,3.878,3.879
	L45.386,39.863L45.386,39.863z"/>
</svg>
